# xmcd CD database file
#
# Track frame offsets:
#	150
#	24962
#	61490
#	86975
#	114067
#	147218
#	170366
#	194215
#
# Disc length: 3066 seconds
#
# Revision: 0
# Processed by: cddbd v1.5.1PL2 Copyright (c) Steve Scherf et al.
# Submitted via: CDex 1.51
#
DISCID=6a0bf808
DTITLE=Mark Nightingale and RIAS Big Band - Destiny
DYEAR=1900
DGENRE=Jazz
TTITLE0=I'm old fashioned
TTITLE1=My foolish heart
TTITLE2=The song is you
TTITLE3=Solitude
TTITLE4=Don't mention the blues
TTITLE5=Destiny
TTITLE6=Whisper not
TTITLE7=What is this thing called love
EXTD=
EXTT0=
EXTT1=
EXTT2=
EXTT3=
EXTT4=
EXTT5=
EXTT6=
EXTT7=
PLAYORDER=
